<?xml version="1.0" encoding="utf-8"?>
<!-- Generator: Adobe Illustrator 16.0.0, SVG Export Plug-In . SVG Version: 6.00 Build 0)  -->
<!DOCTYPE svg PUBLIC "-//W3C//DTD SVG 1.1//EN" "http://www.w3.org/Graphics/SVG/1.1/DTD/svg11.dtd">
<svg version="1.1" id="Layer_1" xmlns="http://www.w3.org/2000/svg" xmlns:xlink="http://www.w3.org/1999/xlink" x="0px" y="0px"
	 width="35px" height="35px" viewBox="0 0 35 35" enable-background="new 0 0 35 35" xml:space="preserve">
<g>
	<path fill-rule="evenodd" clip-rule="evenodd" fill="#FFFFFF" d="M7.962,0.102c0.053,0.018,0.105,0.04,0.157,0.066
		C8.84,0.531,9.506,1.854,9.963,2.5c0.589,0.834,1.153,1.685,1.763,2.504c0.679,0.913,1.318,1.856,2.004,2.766
		c0.652,0.866,0.542,1.802-0.37,2.371c-1.47,0.917-2.941,1.839-4.604,2.394c-0.401,0.133-0.56,0.347-0.409,0.854
		c0.569,1.898,1.631,3.514,2.835,5.035c1.985,2.506,4.275,4.699,6.937,6.494c1.125,0.76,2.301,1.376,3.6,1.793
		c0.513,0.165,0.701-0.021,0.852-0.41c0.628-1.624,1.479-3.131,2.438-4.578c0.607-0.917,1.436-0.996,2.32-0.375
		c1.8,1.265,3.584,2.552,5.374,3.831c1.045,0.747,2.344,1.272,2.233,2.796c-0.103,1.43-1.697,2.974-2.621,3.998
		c-1.178,1.306-2.533,2.396-4.241,2.961c-0.714,0-1.428,0-2.143,0c-0.754-0.174-0.683-0.192-1.013-0.309
		c-2.387-0.839-4.65-1.944-6.798-3.276c-1.681-1.043-3.277-2.212-4.839-3.437C11.237,26.307,9.4,24.5,7.727,22.524
		c-1.594-1.882-3.008-3.892-4.268-6.02c-1.031-1.743-1.972-3.513-2.719-5.396C0.495,10.49,0.502,10.62,0.1,9.236
		c-0.224-0.847,0-1.428,0-2.142c0.089-0.49,0.185-0.66,0.343-0.957C1.334,4.471,2.598,3.13,4.106,2.008
		C4.996,1.347,6.709-0.326,7.962,0.102z"/>
	<path fill-rule="evenodd" clip-rule="evenodd" fill="#FFFFFF" d="M19.337,1.875c0.9,0.297,1.8,0.735,2.663,1.221
		c2.5,1.409,4.757,3.151,6.658,5.305c1.889,2.138,3.475,4.484,4.554,7.149c0.175,0.435,0.158,0.453-0.375,0.598
		c-0.341,0.095-0.667,0.186-0.998,0.282c-0.318,0.092-0.423,0.029-0.53-0.237c-0.897-2.248-2.185-4.247-3.738-6.105
		c-1.599-1.913-3.495-3.453-5.598-4.744c-0.952-0.585-1.95-1.117-3.017-1.493c-0.241-0.086-0.406-0.177-0.29-0.557
		c0.119-0.388,0.085-0.572,0.307-1.201C19.053,1.861,19.126,1.872,19.337,1.875z"/>
	<path fill-rule="evenodd" clip-rule="evenodd" fill="#FFFFFF" d="M28.072,14.825c-0.021,0.477,0.006,0.167-0.69,0.554
		c-0.869,0.483-0.917,0.46-1.338-0.438c-0.931-1.991-2.224-3.692-4.18-4.807c-0.675-0.384-1.404-0.694-2.048-1.097
		c-0.793-0.495-0.127-0.826,0.187-1.71c0.115-0.325,0.332-0.299,0.61-0.169c2.371,1.104,4.424,2.58,5.905,4.798
		c0.545,0.816,0.95,1.69,1.411,2.542C27.992,14.612,28.035,14.738,28.072,14.825z"/>
</g>
</svg>
